<?xml version="1.0" standalone="no"?>
<!DOCTYPE svg PUBLIC "-//W3C//DTD SVG 20010904//EN"
 "http://www.w3.org/TR/2001/REC-SVG-20010904/DTD/svg10.dtd">
<svg version="1.0" xmlns="http://www.w3.org/2000/svg"
 width="700.000000pt" height="465.000000pt" viewBox="0 0 700.000000 465.000000"
 preserveAspectRatio="xMidYMid meet">

<g transform="translate(0.000000,465.000000) scale(0.100000,-0.100000)"
fill="#000000" stroke="none">
<path d="M3960 4613 c0 -21 5 -45 10 -53 8 -13 10 -13 10 0 0 18 16 2 24 -25
3 -11 4 -5 2 13 l-3 34 44 -4 43 -3 0 37 0 38 -65 0 -65 0 0 -37z m105 18 c14
-2 10 -6 -15 -14 -24 -9 -37 -9 -42 -2 -13 17 -9 22 15 20 12 -1 31 -3 42 -4z"/>
<path d="M4124 4619 c3 -17 6 -37 6 -43 0 -24 20 21 20 47 0 18 -5 27 -16 27
-13 0 -15 -7 -10 -31z"/>
<path d="M4160 4620 c0 -28 3 -30 36 -30 36 0 73 -23 54 -35 -5 -3 -10 -1 -10
4 0 6 -7 11 -15 11 -23 0 -18 -31 6 -37 14 -4 18 -11 13 -22 -3 -9 -7 -23 -8
-31 0 -8 -7 -19 -13 -23 -20 -13 -15 -30 7 -24 14 3 20 0 21 -11 1 -10 3 -24
4 -32 1 -8 3 -26 4 -40 l1 -24 16 23 c17 23 22 66 10 79 -4 3 -11 0 -16 -8 -8
-12 -10 -10 -10 8 0 15 6 22 20 22 12 0 20 -7 20 -17 0 -13 3 -14 12 -5 16 16
40 15 36 0 -3 -20 12 -58 23 -58 6 0 7 5 4 10 -3 6 -1 10 4 10 6 0 11 5 11 11
0 5 -4 8 -9 4 -5 -3 -12 -1 -16 5 -3 6 3 10 16 10 18 0 21 -5 17 -29 -2 -17
-1 -28 4 -25 4 3 8 13 8 22 1 15 2 15 13 2 7 -9 20 -14 31 -12 11 2 16 0 12
-7 -4 -6 -2 -11 3 -11 6 0 11 12 11 28 1 24 2 25 14 10 16 -22 32 -23 40 -3 3
8 11 15 17 15 8 0 6 -7 -4 -18 -10 -10 -17 -23 -17 -28 0 -5 -19 -10 -42 -11
-22 -2 -43 -4 -45 -6 -2 -2 -4 -29 -6 -60 -2 -46 -4 -53 -16 -44 -12 10 -12 8
-2 -12 10 -17 15 -20 21 -11 4 7 17 10 29 7 12 -3 18 -1 15 4 -3 5 3 12 12 16
10 4 19 2 22 -5 4 -13 32 -17 32 -4 0 9 79 9 108 -2 12 -4 22 -12 22 -17 0
-13 -38 -11 -42 3 -3 7 -14 5 -33 -8 l-29 -19 31 -3 c28 -3 51 -27 38 -40 -3
-3 -5 0 -5 6 0 7 -17 12 -44 12 -39 0 -44 -2 -39 -20 4 -16 14 -20 44 -20 32
0 39 -3 39 -20 0 -11 7 -20 15 -20 8 0 15 9 15 20 0 11 5 20 10 20 6 0 10 9
10 20 0 11 7 20 15 20 8 0 15 -8 15 -17 0 -21 72 -57 110 -56 15 1 18 0 8 -4
-23 -6 -23 -15 2 -33 24 -17 26 -36 5 -48 -18 -9 -33 -82 -17 -82 5 0 13 10
16 23 l7 22 11 -22 c6 -13 17 -23 25 -23 7 0 13 -7 13 -15 0 -8 4 -15 10 -15
5 0 8 20 7 44 -1 33 -5 42 -14 34 -7 -5 -17 -7 -23 -3 -14 9 -13 36 3 34 27
-3 37 2 37 21 0 15 7 20 26 20 22 0 24 -3 18 -22 -3 -13 -11 -24 -15 -26 -5
-2 -9 -10 -9 -18 0 -10 7 -13 25 -8 15 4 25 2 25 -5 0 -6 -5 -11 -11 -11 -6 0
-8 -7 -5 -16 4 -11 2 -15 -8 -11 -10 4 -13 1 -9 -9 3 -7 9 -14 14 -14 5 0 9
-9 9 -19 0 -17 10 -21 70 -27 59 -6 70 -9 70 -25 0 -13 7 -19 21 -19 24 0 63
-42 47 -51 -7 -5 -7 -19 0 -45 l10 -39 1 33 c1 31 3 32 41 32 32 0 40 4 40 18
0 9 8 22 18 28 13 8 21 7 36 -8 17 -16 18 -18 3 -18 -10 0 -17 -8 -17 -20 0
-13 7 -20 20 -20 13 0 20 7 20 19 0 17 5 15 35 -13 42 -40 43 -46 10 -46 -14
0 -25 -4 -25 -10 0 -5 14 -10 30 -10 17 0 30 5 30 10 0 6 18 10 39 10 22 0 42
6 44 13 3 6 3 -3 0 -21 -4 -23 0 -38 12 -52 18 -20 17 -20 -13 -20 -19 0 -32
-5 -32 -12 0 -9 16 -12 55 -10 30 2 55 8 55 13 0 5 18 9 41 9 26 0 38 -4 33
-11 -3 -6 -14 -9 -24 -6 -9 2 -25 0 -35 -6 -17 -9 -16 -11 6 -23 13 -7 32 -13
42 -14 9 0 17 -4 17 -10 0 -5 11 -10 25 -10 29 0 32 -8 8 -26 -17 -12 -17 -14
4 -33 12 -12 27 -21 33 -21 5 0 10 -14 10 -31 l0 -31 59 5 c45 3 61 1 65 -9 4
-10 -2 -14 -19 -14 -15 0 -25 -6 -25 -14 0 -7 -7 -19 -15 -26 -8 -7 -15 -19
-15 -26 0 -8 7 -14 15 -14 9 0 15 9 15 21 0 20 4 21 50 17 41 -4 50 -2 52 11
0 9 2 21 2 28 3 26 14 22 27 -9 18 -44 33 -60 47 -46 13 13 35 0 28 -17 -2 -7
4 -15 15 -18 22 -6 26 -27 5 -27 -26 0 -28 -20 -4 -29 13 -6 17 -10 11 -10 -7
-1 -13 -7 -13 -15 0 -8 -13 -23 -30 -33 -36 -21 -38 -33 -6 -33 16 0 26 7 29
21 3 12 10 18 16 15 6 -4 13 13 17 39 l6 45 19 -21 c17 -20 18 -24 4 -45 -17
-26 -20 -74 -5 -74 6 0 10 -13 10 -30 0 -23 4 -30 20 -30 16 0 20 7 20 30 0
23 -5 30 -19 30 -10 0 -22 7 -25 16 -5 12 -2 15 10 10 8 -3 29 -6 45 -6 19 0
29 -5 29 -15 0 -21 30 -19 31 3 0 9 5 2 10 -16 5 -18 14 -30 19 -27 4 3 11 -1
13 -7 3 -8 6 -6 6 5 1 9 -3 17 -9 17 -5 0 -10 7 -10 15 0 9 6 12 17 8 12 -5
15 -2 10 10 -4 11 -2 14 9 10 17 -6 17 -13 3 -50 -5 -15 -6 -23 -1 -18 5 6 15
27 22 48 13 41 35 49 43 15 4 -13 13 -32 22 -43 15 -18 15 -17 0 13 -8 17 -11
32 -6 32 5 0 14 -13 21 -30 10 -25 18 -30 49 -31 20 0 29 -3 21 -6 -8 -3 -26
-17 -40 -31 -14 -14 -19 -22 -11 -17 11 6 13 4 8 -8 -3 -9 -2 -17 3 -19 5 -2
10 -16 12 -32 2 -23 -3 -33 -22 -44 l-25 -14 25 6 c14 3 33 6 43 6 10 0 17 8
17 20 0 11 5 20 11 20 6 0 9 -7 6 -15 -4 -8 -2 -17 4 -20 5 -4 7 -11 3 -16 -3
-5 -10 -7 -15 -4 -5 4 -9 -14 -9 -39 0 -34 -4 -46 -17 -49 -10 -2 -5 -3 11 -1
16 2 41 4 57 4 24 0 29 4 29 25 0 16 6 25 15 25 18 0 20 -17 3 -22 -6 -2 -8
-10 -4 -16 10 -17 26 -15 26 3 0 8 7 15 16 15 10 0 14 -6 10 -15 -3 -8 -1 -15
4 -15 6 0 10 5 10 11 0 5 4 7 10 4 6 -4 5 -13 -2 -25 -16 -25 4 -70 32 -70 25
0 26 16 3 29 -15 8 -16 13 -5 30 6 12 12 28 12 36 0 18 16 20 26 3 4 -6 2 -14
-4 -16 -14 -4 -16 -62 -3 -62 5 0 11 4 13 10 2 6 8 6 18 0 13 -8 12 -10 -2
-10 -15 0 -18 -9 -18 -50 0 -37 4 -50 15 -50 12 0 13 5 3 24 -13 29 -5 56 17
56 10 0 15 -10 15 -31 0 -24 4 -30 15 -25 9 3 15 0 15 -9 0 -9 16 -23 35 -32
19 -9 35 -20 35 -23 0 -4 -15 -14 -32 -23 l-33 -16 70 0 c39 -1 81 -4 94 -8
23 -6 23 -7 5 -14 -18 -7 -17 -8 3 -8 l23 -1 0 1055 0 1055 -1420 0 -1420 0 0
-30z m148 -103 c9 -10 6 -17 -8 -30 -21 -18 -22 -18 -22 13 0 11 0 22 1 25 2
9 19 5 29 -8z m-51 -49 c-3 -8 -6 -5 -6 6 -1 11 2 17 5 13 3 -3 4 -12 1 -19z
m113 3 c0 -5 8 -11 18 -14 9 -2 -7 -3 -35 -3 -59 1 -73 21 -18 24 19 2 35 -2
35 -7z m1815 -27 c9 -15 25 -24 40 -24 18 0 25 -5 25 -19 0 -11 -5 -23 -11
-27 -11 -6 -8 -40 6 -76 11 -29 -22 -34 -50 -8 -23 22 -26 22 -43 7 -10 -10
-26 -17 -36 -17 -15 0 -16 6 -11 43 5 33 3 46 -9 56 -22 18 -20 41 3 41 12 0
23 11 29 30 12 34 32 32 57 -6z m-1905 -60 c0 -8 -5 -12 -10 -9 -6 4 -8 11 -5
16 9 14 15 11 15 -7z m340 -29 c0 -19 -5 -25 -21 -25 -11 0 -18 3 -16 8 2 4 7
15 10 25 9 26 27 21 27 -8z m-146 -30 c-4 -8 -10 -12 -15 -9 -14 8 -10 24 6
24 9 0 12 -6 9 -15z m86 -24 c0 -16 6 -31 13 -34 7 -2 8 -8 3 -13 -5 -5 -11
-4 -13 4 -3 6 -20 12 -39 12 -39 0 -41 7 -16 38 25 32 52 29 52 -7z m-77 -19
c-6 -23 -23 -21 -23 4 0 8 5 12 10 9 6 -3 10 -1 10 6 0 7 2 10 5 8 2 -3 2 -15
-2 -27z m927 -10 c20 -9 41 -31 50 -49 10 -22 26 -36 48 -44 31 -10 61 -53 47
-67 -3 -3 -5 0 -5 6 0 7 -9 6 -27 -4 -16 -7 -34 -14 -40 -14 -7 0 -13 -4 -13
-10 0 -5 -9 -19 -21 -31 -17 -17 -18 -23 -7 -37 12 -15 11 -16 -4 -4 -9 8 -21
11 -25 9 -5 -3 -29 -8 -53 -12 -25 -3 -53 -9 -64 -12 -12 -3 -16 -1 -12 6 7
10 -19 16 -53 12 -7 -2 -10 2 -7 8 3 5 -5 19 -20 30 -15 12 -23 25 -18 32 4 7
2 10 -7 7 -13 -4 -59 37 -59 53 0 16 40 49 59 49 27 0 35 17 20 38 -11 14 -11
15 1 5 11 -10 20 -6 47 17 27 24 43 30 81 30 26 0 63 -8 82 -18z m-940 -22
c13 -8 13 -10 -2 -10 -9 0 -20 5 -23 10 -8 13 5 13 25 0z m375 -40 c3 -5 1
-10 -4 -10 -6 0 -11 5 -11 10 0 6 2 10 4 10 3 0 8 -4 11 -10z m352 4 c-3 -3
-12 -4 -19 -1 -8 3 -5 6 6 6 11 1 17 -2 13 -5z m-317 -39 c0 -9 -6 -12 -15 -9
-8 4 -12 10 -9 15 8 14 24 10 24 -6z m-34 -19 c8 -8 14 -20 14 -26 0 -6 5 -8
10 -5 6 3 10 -1 10 -10 0 -14 -2 -15 -21 -1 -28 19 -53 56 -39 56 6 0 18 -6
26 -14z m-39 -38 c-3 -8 -6 -5 -6 6 -1 11 2 17 5 13 3 -3 4 -12 1 -19z m396
-105 c-7 -2 -19 -2 -25 0 -7 3 -2 5 12 5 14 0 19 -2 13 -5z m-163 -62 c0 -5
-7 -12 -16 -15 -22 -9 -24 -8 -24 9 0 8 9 15 20 15 11 0 20 -4 20 -9z m1708
-72 c2 -20 12 -41 25 -51 l22 -18 -22 -17 c-13 -10 -26 -33 -29 -50 -7 -37
-19 -41 -46 -17 -13 13 -21 14 -31 5 -11 -9 -17 -8 -26 3 -10 11 -9 21 4 45
11 23 13 36 5 50 -16 32 -12 44 14 39 18 -4 28 2 41 24 21 37 39 31 43 -13z
m-1428 -39 c0 -5 -2 -10 -4 -10 -3 0 -8 5 -11 10 -3 6 -1 10 4 10 6 0 11 -4
11 -10z m150 0 c0 -5 -4 -10 -10 -10 -5 0 -10 5 -10 10 0 6 5 10 10 10 6 0 10
-4 10 -10z m-30 -30 c0 -5 -2 -10 -4 -10 -3 0 -8 5 -11 10 -3 6 -1 10 4 10 6
0 11 -4 11 -10z m-3 -36 c-3 -3 -12 -4 -19 -1 -8 3 -5 6 6 6 11 1 17 -2 13 -5z
m113 -14 c0 -5 -4 -10 -10 -10 -5 0 -10 5 -10 10 0 6 5 10 10 10 6 0 10 -4 10
-10z m210 -270 c0 -5 -4 -10 -10 -10 -5 0 -10 5 -10 10 0 6 5 10 10 10 6 0 10
-4 10 -10z m240 -10 c0 -5 -4 -10 -10 -10 -5 0 -10 5 -10 10 0 6 5 10 10 10 6
0 10 -4 10 -10z m-24 -32 c5 -8 1 -9 -10 -5 -21 8 -35 -21 -15 -34 10 -6 8 -9
-10 -9 -17 0 -22 4 -17 16 10 25 -4 37 -20 17 -12 -16 -13 -16 -14 -1 0 18 7
22 50 25 16 1 32 -3 36 -9z m20 -44 c-4 -20 -10 -34 -13 -30 -3 3 -2 21 1 42
4 20 10 34 13 30 3 -3 2 -21 -1 -42z m-71 -24 c3 -5 1 -10 -4 -10 -6 0 -11 5
-11 10 0 6 2 10 4 10 3 0 8 -4 11 -10z m155 1 c0 -12 -29 -35 -36 -28 -7 6 17
36 29 37 4 0 7 -4 7 -9z m-65 -30 c3 -5 1 -12 -5 -16 -5 -3 -10 1 -10 9 0 18
6 21 15 7z m95 -18 c0 -13 -3 -13 -15 -3 -8 7 -15 16 -15 21 0 5 7 6 15 3 8
-4 15 -13 15 -21z m-30 -17 c0 -8 6 -17 13 -19 6 -3 2 -6 -9 -6 -21 -1 -39 21
-27 33 11 11 23 6 23 -8z m66 -12 c-9 -9 -20 -14 -23 -10 -4 3 2 13 13 20 25
18 31 12 10 -10z m201 -90 c-3 -3 -12 -4 -19 -1 -8 3 -5 6 6 6 11 1 17 -2 13
-5z m-161 -21 c-6 -14 8 -32 25 -33 3 0 16 9 29 20 31 27 46 26 20 -2 -11 -12
-20 -25 -20 -30 0 -13 -54 -9 -73 5 -20 14 -12 57 10 57 10 0 13 -6 9 -17z
m192 -3 c-7 -11 -18 -20 -25 -20 -18 0 -16 10 5 26 25 20 34 17 20 -6z m-48
-21 c0 -5 -4 -9 -10 -9 -5 0 -10 7 -10 16 0 8 5 12 10 9 6 -3 10 -10 10 -16z
m107 -57 c-5 14 -1 17 23 15 37 -2 39 -13 5 -21 -14 -4 -25 -11 -25 -17 0 -15
-18 -1 -31 24 l-12 22 23 -20 c20 -17 22 -17 17 -3z m79 -67 c-4 -24 -16 -30
-16 -7 0 12 4 22 9 22 5 0 8 -7 7 -15z m-41 -74 c-4 -45 -14 -68 -16 -35 -5
105 -5 112 7 95 7 -9 11 -36 9 -60z m100 30 c3 -5 1 -12 -5 -16 -5 -3 -10 1
-10 9 0 18 6 21 15 7z m32 -27 c-3 -3 -12 -4 -19 -1 -8 3 -5 6 6 6 11 1 17 -2
13 -5z m-77 -14 c0 -5 -7 -7 -15 -4 -8 4 -15 8 -15 10 0 2 7 4 15 4 8 0 15 -4
15 -10z m7 -52 c-3 -8 -6 -5 -6 6 -1 11 2 17 5 13 3 -3 4 -12 1 -19z m60 -24
c-3 -3 -12 -4 -19 -1 -8 3 -5 6 6 6 11 1 17 -2 13 -5z m51 -8 c-7 -8 -15 -12
-17 -11 -5 6 10 25 20 25 5 0 4 -6 -3 -14z m122 -44 c0 -7 -39 -45 -41 -39 -4
11 -6 54 -2 60 5 8 43 -10 43 -21z m140 -188 c0 -2 -7 -4 -15 -4 -8 0 -15 4
-15 10 0 5 7 7 15 4 8 -4 15 -8 15 -10z m65 -2 c-3 -3 -11 0 -18 7 -9 10 -8
11 6 5 10 -3 15 -9 12 -12z m-15 -42 c0 -5 -4 -10 -10 -10 -5 0 -10 5 -10 10
0 6 5 10 10 10 6 0 10 -4 10 -10z"/>
<path d="M6152 4374 c9 -9 21 -13 27 -9 16 10 3 25 -22 25 -20 0 -20 -1 -5
-16z"/>
<path d="M5295 4250 c-3 -5 -1 -11 5 -15 6 -4 5 -11 -3 -20 -10 -12 -14 -11
-25 3 -11 15 -14 15 -22 2 -14 -21 -12 -32 3 -25 6 4 5 1 -4 -7 -39 -33 -30
-68 18 -68 16 0 20 5 16 20 -4 14 0 20 12 20 12 0 15 -5 10 -20 -7 -21 10 -28
18 -7 4 9 8 9 15 -1 7 -10 22 -12 56 -7 44 7 46 8 46 42 0 36 -37 82 -69 84
-9 1 -28 3 -43 5 -15 1 -30 -1 -33 -6z m95 -59 c0 -6 -4 -12 -9 -15 -13 -8
-42 4 -35 15 7 12 44 12 44 0z"/>
<path d="M5170 4160 c-13 -9 -13 -11 0 -20 15 -10 25 0 18 20 -2 6 -8 6 -18 0z"/>
<path d="M5480 4139 c0 -5 5 -7 10 -4 6 3 10 8 10 11 0 2 -4 4 -10 4 -5 0 -10
-5 -10 -11z"/>
<path d="M5243 4072 c20 -19 82 -28 71 -10 -6 10 -5 11 7 1 12 -10 17 -8 26 5
9 16 6 18 -28 19 -21 1 -41 -2 -44 -8 -4 -5 -12 -9 -18 -9 -7 0 -6 4 3 10 12
7 10 9 -8 7 -18 -1 -20 -3 -9 -15z"/>
<path d="M5377 4084 c-3 -3 -3 -12 0 -20 6 -16 43 -1 43 18 0 6 -6 5 -17 -3
-11 -10 -14 -10 -9 -1 7 12 -6 17 -17 6z"/>
<path d="M6700 3809 c0 -5 5 -7 10 -4 6 3 10 8 10 11 0 2 -4 4 -10 4 -5 0 -10
-5 -10 -11z"/>
<path d="M4106 4575 c-3 -9 -5 -33 -5 -53 2 -33 2 -32 9 13 8 53 6 66 -4 40z"/>
<path d="M4020 4553 c0 -10 5 -25 10 -33 7 -11 10 -7 10 18 0 17 -4 32 -10 32
-5 0 -10 -8 -10 -17z"/>
<path d="M4054 4555 c-3 -8 -1 -27 4 -42 10 -27 10 -26 11 15 1 43 -5 54 -15
27z"/>
<path d="M4156 4563 c-3 -4 -5 -22 -5 -42 1 -23 3 -28 6 -13 5 27 23 29 30 2
5 -18 33 -30 33 -14 0 12 -58 72 -64 67z"/>
<path d="M3951 4504 c0 -11 3 -14 6 -6 3 7 2 16 -1 19 -3 4 -6 -2 -5 -13z"/>
<path d="M4170 4460 c19 -13 30 -13 30 0 0 6 -10 10 -22 10 -19 0 -20 -2 -8
-10z"/>
<path d="M4310 4399 c0 -5 5 -7 10 -4 6 3 10 2 10 -2 0 -5 7 -18 15 -29 15
-19 15 -19 8 1 -12 37 -43 62 -43 34z"/>
<path d="M4205 4370 c-3 -5 -1 -10 4 -10 6 0 11 5 11 10 0 6 -2 10 -4 10 -3 0
-8 -4 -11 -10z"/>
<path d="M4162 4320 c0 -14 2 -19 5 -12 2 6 2 18 0 25 -3 6 -5 1 -5 -13z"/>
<path d="M4415 4310 c-4 -6 -10 -8 -15 -5 -5 3 -11 2 -14 -3 -2 -4 6 -9 20
-10 15 -1 24 3 24 13 0 17 -6 19 -15 5z"/>
<path d="M4329 4206 c26 -28 31 -31 31 -17 0 5 -12 17 -27 26 l-28 18 24 -27z"/>
<path d="M4341 4227 c2 -1 13 -9 24 -17 19 -14 19 -14 6 3 -7 9 -18 17 -24 17
-6 0 -8 -1 -6 -3z"/>
<path d="M4451 4207 c-1 -10 -5 -15 -11 -12 -5 3 -10 1 -10 -5 0 -7 7 -10 15
-6 8 3 15 0 15 -6 0 -6 2 -9 5 -6 3 3 1 16 -4 29 -7 18 -10 20 -10 6z"/>
<path d="M4268 4183 c7 -3 16 -2 19 1 4 3 -2 6 -13 5 -11 0 -14 -3 -6 -6z"/>
<path d="M4557 4089 c7 -7 15 -10 18 -7 3 3 -2 9 -12 12 -14 6 -15 5 -6 -5z"/>
<path d="M4800 4031 c0 -11 -7 -21 -17 -23 -15 -3 -15 -4 0 -17 15 -11 17 -11
17 2 0 8 9 17 20 20 11 3 20 12 20 21 0 9 -8 16 -20 16 -13 0 -20 -7 -20 -19z"/>
<path d="M5010 3842 c0 -5 7 -15 15 -22 8 -7 15 -9 15 -6 0 4 -7 14 -15 22 -8
9 -15 11 -15 6z"/>
<path d="M5115 3791 c-3 -6 1 -14 9 -17 9 -3 16 -12 16 -20 0 -8 5 -14 10 -14
16 0 12 19 -9 41 -12 13 -21 17 -26 10z"/>
<path d="M5014 3768 c-4 -6 -3 -8 4 -4 5 3 13 0 15 -6 3 -8 6 -6 6 5 1 19 -14
23 -25 5z"/>
<path d="M4937 3759 c7 -7 15 -10 18 -7 3 3 -2 9 -12 12 -14 6 -15 5 -6 -5z"/>
<path d="M4863 3753 c9 -2 15 -8 13 -12 -3 -4 1 -8 8 -8 8 0 12 6 9 14 -3 7
-15 12 -27 12 -17 -1 -17 -2 -3 -6z"/>
<path d="M4835 3709 c-4 -6 -5 -12 -2 -15 2 -3 7 2 10 11 7 17 1 20 -8 4z"/>
<path d="M5020 3705 c7 -9 15 -13 17 -11 7 7 -7 26 -19 26 -6 0 -6 -6 2 -15z"/>
<path d="M5017 3673 c-4 -3 -7 -11 -7 -17 0 -6 5 -5 12 2 6 6 9 14 7 17 -3 3
-9 2 -12 -2z"/>
<path d="M4996 3637 c3 -10 9 -15 12 -12 3 3 0 11 -7 18 -10 9 -11 8 -5 -6z"/>
<path d="M5420 3560 c0 -5 5 -10 10 -10 6 0 10 5 10 10 0 6 -4 10 -10 10 -5 0
-10 -4 -10 -10z"/>
<path d="M5540 3549 c0 -5 5 -7 10 -4 6 3 10 8 10 11 0 2 -4 4 -10 4 -5 0 -10
-5 -10 -11z"/>
<path d="M5403 3523 c9 -2 23 -2 30 0 6 3 -1 5 -18 5 -16 0 -22 -2 -12 -5z"/>
<path d="M5600 3520 c0 -5 4 -10 9 -10 6 0 13 5 16 10 3 6 -1 10 -9 10 -9 0
-16 -4 -16 -10z"/>
<path d="M5657 3513 c-12 -11 -8 -23 8 -23 8 0 15 7 15 15 0 16 -12 20 -23 8z"/>
<path d="M5600 3474 c0 -17 22 -14 28 4 2 7 -3 12 -12 12 -9 0 -16 -7 -16 -16z"/>
<path d="M5655 3460 c-3 -5 1 -10 9 -10 9 0 16 5 16 10 0 6 -4 10 -9 10 -6 0
-13 -4 -16 -10z"/>
<path d="M5920 3274 c0 -8 5 -12 10 -9 6 3 10 10 10 16 0 5 -4 9 -10 9 -5 0
-10 -7 -10 -16z"/>
<path d="M5960 3276 c0 -8 5 -18 10 -21 6 -3 10 3 10 14 0 12 -4 21 -10 21 -5
0 -10 -6 -10 -14z"/>
<path d="M6000 3268 c0 -15 -4 -30 -10 -33 -17 -10 -11 -25 10 -25 11 0 20 5
20 10 0 6 -5 10 -10 10 -6 0 -5 8 2 20 10 15 10 22 0 32 -9 9 -12 6 -12 -14z"/>
<path d="M5931 3216 c-10 -12 -8 -13 8 -9 12 3 18 9 15 14 -7 12 -10 11 -23
-5z"/>
<path d="M6170 3065 c0 -8 7 -15 15 -15 8 0 15 7 15 15 0 8 -7 15 -15 15 -8 0
-15 -7 -15 -15z"/>
<path d="M6065 3030 c-3 -5 -1 -10 4 -10 6 0 11 5 11 10 0 6 -2 10 -4 10 -3 0
-8 -4 -11 -10z"/>
<path d="M6260 2996 c0 -2 7 -7 16 -10 8 -3 12 -2 9 4 -6 10 -25 14 -25 6z"/>
<path d="M6240 2976 c0 -9 5 -14 10 -11 6 3 10 2 10 -4 0 -5 -6 -12 -12 -14
-10 -4 -10 -8 -2 -14 7 -4 14 -17 17 -28 4 -15 5 -14 4 5 -1 14 2 30 6 36 3 6
-2 19 -13 29 -19 17 -20 17 -20 1z"/>
<path d="M6341 2947 c-7 -7 -7 -15 2 -26 10 -12 9 -13 -1 -7 -19 12 -62 15
-56 4 3 -5 11 -7 17 -5 7 2 21 0 31 -6 15 -7 22 -5 32 8 8 10 20 15 29 12 26
-11 17 1 -14 16 -21 10 -32 12 -40 4z"/>
<path d="M6145 2940 c3 -5 8 -10 11 -10 2 0 4 5 4 10 0 6 -5 10 -11 10 -5 0
-7 -4 -4 -10z"/>
<path d="M6471 2754 c0 -11 3 -14 6 -6 3 7 2 16 -1 19 -3 4 -6 -2 -5 -13z"/>
<path d="M6563 2690 c0 -25 2 -35 4 -22 2 12 2 32 0 45 -2 12 -4 2 -4 -23z"/>
<path d="M6603 2690 c0 -25 2 -35 4 -22 2 12 2 32 0 45 -2 12 -4 2 -4 -23z"/>
<path d="M6631 2641 c-9 -6 -10 -11 -2 -15 13 -8 31 1 31 15 0 11 -11 11 -29
0z"/>
<path d="M6760 2610 c0 -33 3 -40 20 -40 17 0 20 7 20 40 0 33 -3 40 -20 40
-17 0 -20 -7 -20 -40z"/>
<path d="M6701 2631 c-10 -6 -10 -10 -1 -16 13 -8 24 -1 19 14 -3 6 -10 7 -18
2z"/>
<path d="M6568 2613 c7 -3 16 -2 19 1 4 3 -2 6 -13 5 -11 0 -14 -3 -6 -6z"/>
<path d="M6606 2585 c-3 -9 0 -15 8 -15 7 0 13 7 13 15 0 8 -4 15 -8 15 -4 0
-9 -7 -13 -15z"/>
<path d="M6695 2560 c-3 -5 1 -10 10 -10 9 0 13 5 10 10 -3 6 -8 10 -10 10 -2
0 -7 -4 -10 -10z"/>
<path d="M6960 2520 c0 -5 6 -11 13 -13 10 -4 10 -6 0 -6 -11 -1 -20 -31 -9
-31 36 0 49 44 16 53 -11 3 -20 1 -20 -3z"/>
<path d="M6780 2450 c0 -22 5 -40 10 -40 6 0 10 5 10 10 0 6 18 10 40 10 22 0
40 5 40 10 0 6 -18 10 -40 10 -33 0 -40 3 -40 20 0 11 -4 20 -10 20 -5 0 -10
-18 -10 -40z"/>
<path d="M6820 2405 c0 -11 48 -54 54 -48 3 4 6 -1 6 -10 0 -9 5 -17 10 -17 6
0 10 18 10 40 l0 40 -40 0 c-22 0 -40 -2 -40 -5z"/>
<path d="M6968 2403 c6 -2 18 -2 25 0 6 3 1 5 -13 5 -14 0 -19 -2 -12 -5z"/>
<path d="M6960 2380 c0 -5 9 -10 20 -10 11 0 20 5 20 10 0 6 -9 10 -20 10 -11
0 -20 -4 -20 -10z"/>
<path d="M6968 2343 c6 -2 18 -2 25 0 6 3 1 5 -13 5 -14 0 -19 -2 -12 -5z"/>
<path d="M6650 2316 c0 -2 11 -6 25 -8 14 -3 25 -1 25 3 0 5 -11 9 -25 9 -14
0 -25 -2 -25 -4z"/>
<path d="M4315 1387 c-44 -25 -95 -70 -95 -83 0 -8 -7 -14 -15 -14 -8 0 -19
-9 -25 -19 -5 -11 -19 -23 -30 -26 -23 -7 -27 -35 -5 -35 8 0 15 -4 15 -8 0
-12 -68 -13 -75 -2 -3 6 -12 10 -18 10 -8 0 -7 -3 2 -9 24 -15 1 -34 -35 -28
-19 3 -34 2 -34 -3 0 -5 -36 -17 -80 -26 -44 -10 -80 -21 -80 -26 0 -9 -41
-11 -64 -2 -9 3 -16 13 -16 20 0 11 -5 12 -18 5 -13 -7 -22 -7 -29 0 -18 18
-67 18 -86 1 -15 -13 -39 -17 -105 -17 -96 0 -127 -13 -153 -62 -24 -47 -63
-81 -106 -92 -23 -6 -45 -11 -50 -10 -4 1 -15 0 -23 -4 -59 -22 -81 -25 -119
-15 -38 10 -43 9 -66 -16 -13 -14 -33 -26 -44 -26 -11 0 -23 -5 -26 -11 -4 -6
-13 -8 -21 -5 -9 3 -19 -4 -26 -19 -6 -14 -16 -25 -22 -25 -6 0 -20 -12 -31
-27 -14 -17 -34 -27 -56 -30 -35 -3 -78 -9 -92 -11 -17 -4 -35 -70 -35 -124 1
-65 -22 -105 -64 -114 -16 -4 -28 -10 -28 -15 0 -13 -45 -11 -107 3 -31 7 -53
18 -53 26 0 9 -5 10 -19 2 -26 -13 -141 -13 -141 0 0 7 -6 7 -18 1 -34 -18
-144 -16 -187 5 -38 18 -95 21 -160 9 -21 -4 -26 -3 -16 3 11 8 9 11 -8 17
-13 4 -28 2 -36 -5 -8 -7 -22 -10 -30 -6 -28 10 -105 -5 -105 -22 0 -12 -4
-12 -21 4 -20 18 -21 18 -34 0 -16 -21 -98 -43 -103 -27 -3 8 -10 8 -23 1 -13
-8 -25 -7 -40 0 -12 7 -65 10 -135 9 -62 -2 -116 0 -119 2 -8 9 -65 -2 -60
-11 10 -15 -22 -18 -60 -4 -22 7 -52 11 -67 9 -17 -3 -28 -1 -28 6 0 6 -7 9
-15 5 -8 -3 -15 -1 -15 5 0 5 -11 7 -25 5 -15 -3 -25 0 -25 7 0 9 -2 9 -8 1
-4 -6 -16 -10 -27 -8 -53 10 -275 12 -275 3 0 -5 -5 -9 -11 -9 -5 0 -7 4 -4
10 3 6 0 10 -7 10 -27 0 -194 11 -223 14 -16 2 -67 7 -113 11 -45 4 -82 11
-82 16 0 5 -36 9 -80 9 l-80 0 0 -310 0 -310 2085 0 c1983 0 2085 1 2077 18
-15 29 13 73 57 87 12 3 21 12 21 20 0 20 112 36 236 33 95 -3 115 0 131 14
11 10 25 18 32 18 8 0 29 13 48 30 33 29 73 40 73 20 0 -5 7 -10 15 -10 8 0
15 4 15 8 0 5 14 9 31 10 17 0 37 6 45 13 8 6 14 8 14 3 1 -5 9 7 19 26 15 26
16 39 8 57 -6 13 -15 23 -20 23 -5 0 -7 9 -4 20 3 11 0 26 -7 33 -7 7 -18 22
-24 33 -6 12 -25 24 -42 27 -21 5 -30 12 -30 27 0 11 5 20 11 20 7 0 9 11 6
27 -5 25 -4 26 8 10 14 -20 16 -19 47 43 10 19 18 39 18 45 1 16 48 47 55 35
9 -15 41 -12 55 5 7 8 21 15 31 15 11 0 19 4 19 10 0 5 6 7 14 4 7 -3 27 7 44
23 23 20 32 38 34 66 2 38 28 77 51 77 7 -1 23 -7 36 -14 20 -11 31 -10 74 6
28 11 62 27 76 37 14 10 39 21 55 25 16 4 30 15 33 26 3 11 9 18 13 15 13 -8
72 53 64 66 -4 8 -3 9 4 5 19 -11 14 5 -5 20 -15 11 -21 9 -40 -8 -21 -20 -36
-22 -93 -15 -14 2 -47 -5 -75 -15 -63 -23 -75 -23 -75 2 0 13 -5 18 -15 14 -8
-4 -15 -1 -15 5 0 6 -7 8 -17 4 -10 -4 -14 -2 -10 4 11 18 -25 25 -43 8 -9 -8
-20 -15 -24 -15 -4 0 -14 -7 -22 -15 -35 -35 -87 -5 -96 56 -2 13 -9 23 -16
21 -6 -1 -12 2 -12 8 0 5 -16 10 -36 10 -27 0 -37 5 -41 20 -3 11 -8 18 -12
15 -4 -2 -7 6 -6 18 1 12 -2 30 -6 39 -6 11 -5 18 4 21 9 4 9 6 -1 6 -7 1 -10
6 -7 11 11 18 -7 11 -42 -16 -43 -33 -78 -29 -78 7 0 16 -14 42 -35 66 -32 35
-39 39 -85 38 -40 0 -50 -4 -53 -18 -5 -25 27 -59 49 -52 18 6 89 -53 89 -74
0 -15 -6 -14 -34 4 -22 15 -61 11 -51 -5 9 -14 -25 -20 -50 -8 -20 9 -25 18
-25 50 0 21 -4 38 -10 38 -17 0 -25 3 -43 21 -21 19 -139 80 -153 78 -5 -1
-18 -6 -29 -12z m477 -320 c27 -23 51 -70 41 -81 -12 -12 -21 -6 -27 19 -7 28
-40 45 -86 45 -35 0 -47 15 -23 29 29 17 66 12 95 -12z m-1012 -164 c0 -11 -7
-14 -26 -10 -15 2 -31 -2 -40 -11 -11 -11 -18 -12 -27 -3 -17 17 -45 13 -57
-8 -13 -25 -13 -44 0 -36 6 3 10 1 10 -5 0 -6 -6 -10 -12 -9 -27 3 -39 -1 -32
-13 5 -8 2 -9 -9 -5 -9 3 -19 2 -22 -3 -4 -6 -17 -10 -31 -10 -33 0 -64 -17
-64 -35 0 -9 -6 -12 -15 -9 -10 4 -15 0 -15 -15 0 -25 -15 -28 -25 -3 -3 9 -6
19 -5 21 1 2 -5 8 -14 13 -11 6 -26 3 -46 -8 -40 -24 -52 -8 -17 22 31 26 48
29 77 14 13 -7 27 -6 47 4 15 8 54 27 86 42 31 15 57 32 57 37 0 6 7 18 16 28
22 25 164 27 164 2z m940 2 c6 -8 19 -14 28 -13 35 3 52 -2 52 -16 0 -19 -91
-8 -107 13 -10 14 -13 14 -30 -2 -11 -9 -27 -17 -37 -17 -23 0 -56 -17 -88
-48 -18 -17 -34 -23 -49 -19 -12 3 -32 -1 -45 -9 -22 -15 -44 -12 -44 5 0 10
70 37 87 33 8 -2 30 11 49 27 19 17 47 33 62 36 15 4 34 10 42 15 24 14 66 11
80 -5z m-375 -5 c32 -12 26 -26 -14 -32 -17 -2 -28 -1 -25 4 9 15 -5 8 -23
-11 -20 -21 -83 -34 -80 -17 2 12 -24 12 -60 1 -40 -13 -27 20 13 34 30 11 41
11 61 0 21 -11 26 -10 46 9 24 24 43 27 82 12z m-671 -65 c3 -8 1 -15 -4 -15
-6 0 -10 7 -10 15 0 8 2 15 4 15 2 0 6 -7 10 -15z"/>
<path d="M6777 612 c-6 -2 -19 -6 -27 -9 -8 -4 -19 -5 -23 -4 -4 1 -28 -10
-52 -24 -65 -39 -97 -45 -152 -31 -74 20 -541 5 -658 -21 -38 -8 -78 -15 -87
-15 -11 1 -18 -7 -18 -19 0 -12 -7 -19 -20 -19 -11 0 -37 -7 -58 -16 -20 -9
-52 -16 -69 -15 -32 2 -45 -12 -20 -22 6 -3 -2 -6 -20 -6 -67 -2 -94 -89 -62
-203 11 -38 13 -40 18 -19 l6 24 13 -27 c6 -15 12 -33 12 -41 0 -8 4 -15 9
-15 5 0 13 -9 16 -20 3 -11 11 -20 16 -20 12 0 44 -30 44 -41 0 -4 12 -16 26
-27 25 -20 39 -21 677 -22 l652 -1 0 302 c0 296 0 301 -20 296 -11 -3 -20 -1
-20 3 0 8 -158 18 -183 12z"/>
<path d="M4801 504 c0 -11 3 -14 6 -6 3 7 2 16 -1 19 -3 4 -6 -2 -5 -13z"/>
</g>
</svg>
