<?xml version="1.0" standalone="no"?>
<!DOCTYPE svg PUBLIC "-//W3C//DTD SVG 20010904//EN"
 "http://www.w3.org/TR/2001/REC-SVG-20010904/DTD/svg10.dtd">
<svg version="1.0" xmlns="http://www.w3.org/2000/svg"
 width="512.000000pt" height="512.000000pt" viewBox="0 0 512.000000 512.000000"
 preserveAspectRatio="xMidYMid meet">

<g transform="translate(0.000000,512.000000) scale(0.100000,-0.100000)"
fill="#000000" stroke="none">
<path d="M330 4955 l0 -165 -165 0 -165 0 0 -335 0 -335 165 0 165 0 2 -167 3
-168 333 -3 332 -2 0 170 0 170 170 0 170 0 -2 333 -3 332 -167 3 -168 2 0
165 0 165 -335 0 -335 0 0 -165z m338 -338 l2 -167 -167 2 -168 3 -3 168 -2
167 167 -2 168 -3 3 -168z"/>
<path d="M0 1725 l0 -1725 670 0 670 0 0 1725 0 1725 -670 0 -670 0 0 -1725z
m670 1225 l0 -170 -167 2 -168 3 -3 155 c-1 85 0 160 2 167 4 10 45 13 171 13
l165 0 0 -170z"/>
<path d="M1780 1725 l0 -1725 615 0 615 0 0 1055 0 1055 440 0 440 0 0 -1055
0 -1055 615 0 615 0 0 1390 0 1390 -165 0 -165 0 0 170 0 170 -170 0 -170 0 0
165 0 165 -1335 0 -1335 0 0 -1725z m670 1225 l0 -170 -167 2 -168 3 -3 155
c-1 85 0 160 2 167 4 10 45 13 171 13 l165 0 0 -170z m890 0 l0 -170 -165 0
-165 0 0 170 0 170 165 0 165 0 0 -170z"/>
</g>
</svg>
