<?xml version="1.0" standalone="no"?>
<!DOCTYPE svg PUBLIC "-//W3C//DTD SVG 20010904//EN"
 "http://www.w3.org/TR/2001/REC-SVG-20010904/DTD/svg10.dtd">
<svg version="1.0" xmlns="http://www.w3.org/2000/svg"
 width="401.000000pt" height="169.000000pt" viewBox="0 0 401.000000 169.000000"
 preserveAspectRatio="xMidYMid meet">

<g transform="translate(0.000000,169.000000) scale(0.100000,-0.100000)"
fill="#000000" stroke="none">
<path d="M2626 1649 c-152 -61 -246 -121 -370 -234 l-112 -103 -160 5 c-159 5
-159 5 -209 38 -287 187 -316 202 -432 236 -90 25 -121 24 -58 -3 68 -29 177
-99 250 -160 60 -51 145 -137 145 -147 0 -3 -28 -21 -63 -38 -91 -48 -202
-137 -278 -225 -72 -83 -154 -212 -144 -228 3 -5 -4 -36 -15 -69 -40 -120 -22
-301 40 -403 11 -18 20 -36 20 -39 0 -4 -24 -9 -52 -13 -85 -11 -147 -37 -179
-76 -16 -19 -35 -43 -44 -52 -8 -10 -10 -18 -5 -18 6 0 10 -11 10 -24 0 -61
110 -91 285 -79 83 6 92 8 121 37 17 17 35 38 40 47 8 14 50 19 274 33 146 9
390 18 543 20 l277 4 0 -24 c0 -70 57 -119 128 -110 23 3 63 0 88 -6 43 -12
49 -11 95 15 27 15 60 27 74 27 41 0 75 42 75 91 l0 41 38 -6 c26 -4 31 -3 17
4 -11 5 -29 9 -39 9 -10 1 -34 17 -53 36 -40 41 -112 65 -195 65 -32 0 -58 3
-58 7 0 3 12 30 26 58 38 80 54 151 54 251 0 97 -16 167 -57 247 -14 29 -21
56 -18 68 4 11 3 18 -2 17 -4 -1 -56 45 -114 102 -71 71 -135 123 -197 161
l-92 57 47 63 c57 78 197 219 275 278 32 24 76 49 99 55 23 7 38 15 33 19 -5
3 -54 -12 -108 -34z m-770 -497 c22 -51 67 -82 116 -82 36 0 85 35 110 79 38
68 49 51 23 -35 -25 -81 -74 -124 -141 -124 -73 0 -120 58 -139 168 -9 56 5
53 31 -6z m162 29 c54 -11 60 -17 37 -39 -16 -14 -17 -15 -6 0 19 26 13 27
-143 29 -10 0 -20 -2 -23 -4 -8 -8 20 -45 44 -58 13 -7 21 -14 19 -16 -9 -9
-58 31 -71 58 -14 26 -14 28 8 32 38 7 90 6 135 -2z m-213 -21 c-3 -5 -1 -19
5 -30 6 -11 7 -20 1 -20 -5 0 -12 11 -15 25 -7 28 -37 34 -58 12 -7 -8 -21
-12 -32 -9 -17 5 -14 8 14 18 43 15 94 18 85 4z m415 -13 c12 4 12 3 2 -5 -15
-10 -62 -4 -62 9 0 5 10 5 23 0 12 -4 29 -6 37 -4z m108 -33 c45 -22 40 -27
-9 -8 -32 13 -45 14 -66 5 -14 -6 -28 -9 -31 -7 -6 7 36 24 59 25 9 1 30 -6
47 -15z m-624 -2 c2 -4 -4 -8 -14 -8 -10 0 -16 4 -14 8 3 4 9 8 14 8 5 0 11
-4 14 -8z m312 -7 c-11 -8 -29 -14 -40 -14 -20 1 -21 1 -1 6 11 3 24 9 30 14
5 5 14 9 20 9 5 0 1 -7 -9 -15z m392 -60 c-3 -3 -9 2 -12 12 -6 14 -5 15 5 6
7 -7 10 -15 7 -18z m-554 -12 c11 -13 16 -23 13 -23 -10 0 -37 31 -37 42 0 6
1 9 3 7 1 -2 11 -14 21 -26z m-354 -3 c0 -5 -5 -10 -11 -10 -5 0 -7 5 -4 10 3
6 8 10 11 10 2 0 4 -4 4 -10z m1030 -43 c0 -6 -5 -5 -12 4 -7 8 -22 23 -33 33
-15 14 -11 13 13 -3 17 -12 32 -27 32 -34z m-616 -16 c-2 -3 -12 3 -22 13 -16
17 -16 18 5 5 12 -7 20 -15 17 -18z m452 -32 c82 -39 164 -160 164 -243 0 -92
-50 -174 -127 -207 -54 -23 -102 -24 -172 -3 -56 16 -131 80 -131 111 1 16 2
16 13 2 47 -61 173 -48 217 23 57 93 47 194 -26 266 -33 31 -52 42 -77 42 -30
1 -31 1 -13 15 28 21 103 18 152 -6z m-691 -9 c-3 -5 -12 -10 -19 -10 -15 0
-54 -48 -79 -96 -9 -18 -16 -53 -15 -80 0 -41 2 -45 13 -30 9 12 24 16 47 14
44 -4 48 -30 8 -58 -25 -18 -34 -19 -45 -10 -27 22 -16 -6 13 -32 40 -38 65
-48 117 -48 51 0 102 24 111 52 3 10 10 18 16 18 6 0 7 -8 3 -17 -3 -10 -9
-30 -12 -45 -13 -64 -82 -98 -200 -98 -139 0 -213 48 -221 144 -8 102 75 231
183 282 52 25 91 31 80 14z m112 -22 c41 -29 63 -82 63 -157 0 -49 -5 -65 -30
-100 -17 -23 -41 -47 -55 -53 -29 -13 -119 -2 -109 14 4 7 2 8 -5 4 -6 -4 -18
-2 -26 4 -12 10 -9 17 18 44 18 18 36 31 41 28 4 -2 3 -8 -4 -12 -15 -9 56 -6
86 4 12 4 25 17 28 29 8 32 7 115 -1 120 -5 3 -7 -21 -5 -52 4 -64 -11 -91
-52 -91 -44 0 -61 24 -60 82 1 36 -1 47 -6 33 -5 -11 -9 -31 -9 -45 -1 -24 -4
-25 -46 -22 -41 4 -45 6 -45 31 0 37 52 117 92 141 43 26 84 25 125 -2z m490
-8 c70 -42 98 -166 56 -247 -34 -65 -121 -101 -176 -72 -33 18 -35 27 -19 64
13 28 19 32 33 24 29 -15 56 -10 86 15 24 21 28 32 28 74 0 132 -134 135 -152
4 -5 -35 -9 -42 -28 -42 -20 0 -21 3 -15 43 10 65 47 134 78 146 42 15 74 13
109 -9z m-27 -70 c42 -42 37 -107 -11 -142 -56 -42 -111 11 -90 87 19 71 62
94 101 55z m-114 -134 c3 -8 -2 -29 -12 -47 -16 -31 -17 -32 -30 -14 -15 21
-17 35 -8 59 8 20 43 21 50 2z m-161 -196 c3 -5 -3 -10 -14 -10 -12 0 -21 5
-21 10 0 6 6 10 14 10 8 0 18 -4 21 -10z"/>
<path d="M1699 863 c-13 -15 -12 -15 8 -3 17 11 27 12 49 1 24 -11 26 -10 14
3 -16 21 -54 20 -71 -1z"/>
<path d="M2761 1594 c0 -11 3 -14 6 -6 3 7 2 16 -1 19 -3 4 -6 -2 -5 -13z"/>
<path d="M2774 1425 c0 -82 2 -115 3 -72 2 43 2 110 0 150 -1 40 -3 5 -3 -78z"/>
<path d="M1153 1365 c0 -33 2 -45 4 -27 2 18 2 45 0 60 -2 15 -4 0 -4 -33z"/>
<path d="M2750 1188 c-7 -40 -23 -107 -36 -148 -13 -41 -21 -76 -19 -78 2 -2
15 31 28 75 26 84 52 211 45 219 -3 2 -11 -29 -18 -68z"/>
<path d="M1151 1004 c0 -32 4 -77 8 -99 6 -27 7 -8 3 55 -5 108 -12 133 -11
44z"/>
<path d="M955 320 c-42 -11 -1 -11 50 -1 34 7 35 9 10 9 -16 0 -43 -4 -60 -8z"/>
<path d="M888 303 c7 -3 16 -2 19 1 4 3 -2 6 -13 5 -11 0 -14 -3 -6 -6z"/>
</g>
</svg>
